<svg id="Capa_1" height="50" viewBox="0 0 512 512" width="50" xmlns="http://www.w3.org/2000/svg"><g fill="#4d4d4d"><path d="M120.375 112.875c0-8.284-6.716-15-15-15h-60.25c-8.284 0-15 6.716-15 15v30.25h90.25zM105.5 293.625c0-49.236 23.767-93.026 60.43-120.5H15c-8.284 0-15 6.716-15 15v211c0 8.284 6.716 15 15 15h150.93c-36.663-27.474-60.43-71.264-60.43-120.5zm-52.75 15c-8.409 0-14.636-6.873-15-15-.363-8.101 7.154-15 15-15 8.409 0 14.636 6.873 15 15 .363 8.101-7.154 15-15 15zm0-67.75c-8.409 0-14.636-6.873-15-15-.363-8.101 7.154-15 15-15 8.409 0 14.636 6.873 15 15 .363 8.101-7.154 15-15 15zm353.75 52.75c0 49.236-23.767 93.026-60.43 120.5H497c8.284 0 15-6.716 15-15v-211c0-8.284-6.716-15-15-15H346.07c36.663 27.474 60.43 71.264 60.43 120.5zm37.75-67.75c0-8.284 6.716-15 15-15s15 6.716 15 15v67.75c0 8.284-6.716 15-15 15s-15-6.716-15-15z"/><circle cx="256" cy="293.625" r="52.75"/><path d="M256 173.125c-66.444 0-120.5 54.056-120.5 120.5s54.056 120.5 120.5 120.5 120.5-54.056 120.5-120.5-54.056-120.5-120.5-120.5zm0 203.25c-45.629 0-82.75-37.122-82.75-82.75s37.121-82.75 82.75-82.75 82.75 37.122 82.75 82.75-37.121 82.75-82.75 82.75z"/></g></svg>