<svg id="Capa_1" height="80" viewBox="0 0 512 512" width="80" xmlns="http://www.w3.org/2000/svg"><g fill="#4d4d4d"><path d="M188.123 92.866l60.915 58.833a9.969 9.969 0 006.947 2.807 9.97 9.97 0 006.945-2.805l60.944-58.833c.087-.084.173-.17.257-.257 20.48-21.26 20.479-55.826-.002-77.05-8.931-9.266-21.161-14.061-34.428-13.52-12.409.512-24.382 5.598-33.701 14.308-9.333-8.715-21.3-13.796-33.702-14.308-13.268-.544-25.498 4.253-34.424 13.515-20.484 21.229-20.486 55.795-.006 77.055.084.086.169.171.255.255zm14.148-63.427c11.264-11.686 29.587-8.292 40.108 1.554l.557.521c4.048 3.793 7.544 7.07 13.054 7.07 5.498 0 9.002-3.27 13.059-7.056l.574-.536c10.519-9.844 28.846-13.24 40.111-1.549 13.062 13.537 13.098 35.557.111 49.17l-53.857 51.992-53.833-51.993c-12.987-13.612-12.951-35.632.116-49.173z"/><path d="M511.999 431.978c-.878-52.242-43.499-63.742-77.745-72.983-4.549-1.227-8.934-2.411-13.159-3.653v-18.88c27.029-17.826 47.338-49.279 47.338-76.645v-44.905c0-48.841-39.709-88.576-88.519-88.576-50.669 0-90.36 38.907-90.36 88.576v44.905c0 27.401 20.305 58.845 47.338 76.655v18.87c-4.228 1.243-8.615 2.427-13.166 3.655a864.5 864.5 0 00-9.243 2.531c-.102.025-.203.057-.304.085-.059.016-.118.032-.177.05-21.87 6.177-45.154 14.589-58.017 34.315-2.64-4.049-5.714-7.627-9.13-10.801l-18.937-127.148v-36.706c0-52.376-42.583-94.987-94.924-94.987-52.342 0-94.925 42.611-94.925 94.987v36.706L19.13 385.18C7.935 395.582.354 410.258 0 431.983V500c0 5.523 4.478 10 10 10h78.093c5.522 0 10-4.477 10-10s-4.478-10-10-10H66.487v-45.117c0-1.875-.157-7.89-.108-8.777.583-.488 1.929-1.446 5.029-3.209 13.505-7.681 42.366-6.148 54.512 6.006a9.998 9.998 0 0014.146 0c12.146-12.154 41.005-13.687 54.51-6.007 3.102 1.764 4.448 2.722 5.03 3.21.049.887-.108 53.894-.108 53.894h-21.605c-5.522 0-10 4.477-10 10s4.478 10 10 10h201.056l.021.001.009-.001 123.022-.001c5.522 0 10-4.477 10-10v-67.854l-.002-.167zm-287.493-61.094c-11.712-5.272-24.471-8.714-36.24-11.89-4.548-1.227-8.933-2.41-13.157-3.653v-16.214c17.293-12.383 31.209-30.741 37.328-49.276zm-76.769-39.482c-11.021 4.094-18.44 4.101-29.402.029-25.207-9.368-48.163-38.526-48.163-61.175v-12.412c14.023-8.544 24.447-16.964 32.939-26.582 23.654 15.397 54.733 26.787 92.702 33.989v5.005c0 22.618-22.92 51.765-48.076 61.146zM58.068 221.323c0-41.348 33.611-74.987 74.925-74.987s74.924 33.639 74.924 74.987v25.781c-43.316-7.275-77.174-19.83-100.759-37.378a9.998 9.998 0 00-14.007 2.073c-7.203 9.73-16.367 18.854-35.083 30.003zm-4.518 68.521c6.118 18.551 20.042 36.915 37.355 49.301v16.197c-4.225 1.242-8.61 2.424-13.157 3.65-11.779 3.177-24.548 6.621-36.269 11.896zm192.435 200.155h-26.487v-45.117c0-1.676.039-3.14.073-4.436.323-12.279-1.719-17.32-15.107-24.937-18.175-10.336-50.853-10.283-71.471 3.484-20.617-13.767-53.295-13.819-71.473-3.484-13.388 7.616-15.43 12.657-15.106 24.936.034 1.296.073 2.76.073 4.436v45.117H20V432.23c.598-34.625 24.188-43.473 62.956-53.929 7.016-1.892 14.271-3.849 21.088-6.103a10 10 0 006.861-9.495v-12.709c.155.059.308.126.464.184 7.668 2.849 14.635 4.273 21.609 4.273 7 0 14.008-1.435 21.735-4.306.132-.049.262-.107.395-.157v12.715a10 10 0 006.859 9.494c6.815 2.255 14.071 4.212 21.087 6.105 38.75 10.456 62.331 19.308 62.931 53.924zm180.901-112.283l-14.197 29.42-18.563-16.747 19.256-16.481c4.457 1.348 9.009 2.592 13.504 3.808zm-47.857-.73l-22.137-19.238v-11.211c7.819 2.79 14.983 4.202 22.133 4.202 7.144 0 14.289-1.411 22.07-4.198v11.558zm.885-230.65c37.781 0 68.519 30.763 68.519 68.576v.337c-44.648 20.315-62.545 11.683-81.433 2.549-14.605-7.063-30.897-14.923-57.133-9.423 3.278-35.275 32.86-62.039 70.047-62.039zm-70.36 113.481v-30.83c22.213-6.003 34.074-.276 48.739 6.817 11.943 5.776 24.749 11.97 43.16 11.969 12.552 0 27.715-2.885 46.979-10.741v22.785c0 11.672-5.625 25.722-15.433 38.546-10.168 13.296-23.88 23.861-37.627 28.991-12.199 4.566-20.449 4.572-32.701.019-27.799-10.316-53.117-42.515-53.117-67.556zm35.343 114.005l19.001 16.513-18.623 16.814-5.981-12.395-.563-1.194c-.043-.091-.095-.174-.141-.263l-7.514-15.57c4.6-1.244 9.266-2.523 13.821-3.905zm-78.912 116.177v-57.717c.434-26.112 13.937-37.577 37.153-46.118l-13.981 60.583a10.001 10.001 0 004.372 10.683l51.134 32.569zm44.249-45.641l9.961-43.164 34.492 71.477zm44.098-18.441l24.649-22.255 24.651 22.24-24.654 51.088zm83.437-24.736l9.979 43.178-44.483 28.323zM492 489.999h-78.696l51.151-32.568a10.003 10.003 0 004.372-10.688l-14.001-60.579c23.198 8.536 36.708 19.99 37.174 46.069z"/><path d="M132.993 489.999c-5.522 0-10 4.477-10 10s4.478 10 10 10h.057c5.522 0 9.972-4.477 9.972-10s-4.506-10-10.029-10z"/></g></svg>