<svg xmlns="http://www.w3.org/2000/svg" width="35" height="35" viewBox="0 0 368 368"><path d="M312 0H56C25.12 0 0 25.12 0 56v256c0 30.88 25.128 56 56 56v-.728c6.536.728 18.416.728 40 .728h216c30.88 0 56-25.128 56-56V56c0-30.88-25.128-56-56-56zm40 312c0 22.056-17.944 40-40 40H56c-22.056 0-40-17.944-40-40V56c0-22.056 17.944-40 40-40h256c22.056 0 40 17.944 40 40v256z" fill="#fff" data-original="#000000" xmlns="http://www.w3.org/2000/svg"/><path d="M184 64c-66.168 0-120 53.832-120 120s53.832 120 120 120 120-53.832 120-120S250.168 64 184 64zm0 224c-57.344 0-104-46.656-104-104S126.656 80 184 80s104 46.656 104 104-46.656 104-104 104z" fill="#fff" data-original="#000000" xmlns="http://www.w3.org/2000/svg"/><path d="M183.624 111.624c-39.904 0-72.376 32.472-72.376 72.376s32.472 72.376 72.376 72.376S256 223.904 256 184s-32.472-72.376-72.376-72.376zm0 128.752c-31.088 0-56.376-25.288-56.376-56.376s25.288-56.376 56.376-56.376S240 152.912 240 184s-25.288 56.376-56.376 56.376z" fill="#fff" data-original="#000000" xmlns="http://www.w3.org/2000/svg"/><circle cx="304" cy="64" r="16" fill="#fff" data-original="#000000" xmlns="http://www.w3.org/2000/svg"/></svg>