<svg version="1.1" id="Capa_1" xmlns="http://www.w3.org/2000/svg" x="0" y="0" width="80" height="80" viewBox="0 0 487.678 487.678" xml:space="preserve"><g fill="#4d4d4d"><path d="M377.996 282.347c-56.201-18.357-79.563-41.185-79.563-41.185l-1.881 1.793c-16.69 15.709-35.149 24.944-51.965 24.944H243c-16.815 0-35.274-9.235-51.964-24.944l-1.882-1.793s-23.36 22.827-79.562 41.185c-82.964 30.992-58.053 157.119-58.077 158.096 2.613 14.047 4.136 18.875 5.463 19.417 83.314 37.091 290.319 37.091 373.634 0 1.327-.542 2.85-5.37 5.463-19.417-.024-.977 25.22-126.603-58.079-158.096z"/><path d="M330.924 121.441l-.696-.755c-4.668-4.274-4.303-4.029-4.303-4.029s8.142-41.083 1.613-60.511c-10.25-31.027-71.475-51.822-83.755-54.239.002-.023-7.469-1.518-7.946-1.521 0 0-9.659-1.953-20.854 2.93-7.291 2.805-45.408 20.09-56.227 52.83-6.528 19.428 1.614 60.511 1.614 60.511s.365-.245-4.304 4.029l-.695.755c-3.158 3.586-2.378 14.806 1.074 26.479 3.128 11.695 7.205 14.838 8.182 17.577 9.903 46.497 44.338 86.197 79.429 86.197s67.707-39.7 77.61-86.197c.978-2.738 5.055-5.882 8.183-17.577 3.452-11.674 4.323-23.664 1.075-26.479z"/></g></svg>