<svg height="70pt" viewBox="0 -86 512 512" width="70pt" xmlns="http://www.w3.org/2000/svg"><path fill="#4d4d4d" d="M45 83.93c24.813 0 45-20.188 45-45H0c0 24.812 20.188 45 45 45zm120.742 151H120v106h105.762c-33.086-24.739-55.73-62.711-60.02-106zM512 38.93h-74.332l25.516 147.191A150.93 150.93 0 01467 219.93c0 49.46-23.902 93.441-60.762 121H512zM90 98.89c-12.543 9.438-28.129 15.04-45 15.04s-32.457-5.602-45-15.04v242.04h90zm0 0"/><path fill="#4d4d4d" d="M437 219.93c0-6.211-.473-12.317-1.379-18.278l-.187.032-1.653-9.512C421.203 138.789 373.171 98.93 316 98.93s-105.203 39.855-117.781 93.242l-1.653 9.512-.187-.032A121.563 121.563 0 00195 219.93c0 66.718 54.281 121 121 121s121-54.282 121-121zm-212 0c0-50.176 40.82-91 91-91s91 40.824 91 91c0 50.18-40.82 91-91 91s-91-40.82-91-91zm-105-15h45.742a150.57 150.57 0 013.078-18.809L194.332 38.93H120zm0 0"/><path fill="#4d4d4d" d="M419.563 110.148l-16.403-94.62C401.602 6.53 393.828 0 384.676 0H247.324a18.715 18.715 0 00-18.488 15.531l-16.398 94.617C239.492 84.61 275.949 68.93 316 68.93c40.055 0 76.508 15.68 103.563 41.218zM316 158.93c-33.637 0-61 27.363-61 61 0 33.636 27.363 61 61 61s61-27.364 61-61c0-33.637-27.363-61-61-61zm0 0"/></svg>