<svg xmlns="http://www.w3.org/2000/svg" width="35" height="35" viewBox="0 0 490 490"><g fill="#fff" xmlns="http://www.w3.org/2000/svg"><path d="M460 0H30C13.458 0 0 13.458 0 30v430c0 16.542 13.458 30 30 30h430c16.542 0 30-13.458 30-30V30c0-16.542-13.458-30-30-30zm10 460c0 5.514-4.486 10-10 10H30c-5.514 0-10-4.486-10-10V30c0-5.514 4.486-10 10-10h430c5.514 0 10 4.486 10 10z" data-original="#000000"/><path d="M396.428 95.214c-5.348 0-11.004.92-16.813 2.736-.212.066-.421.14-.628.22L61.389 221.168c-.68.263-1.329.6-1.936 1.005-.952.635-9.333 6.518-10.319 17.433-.771 8.517 3.104 16.957 11.507 25.078 17.774 17.217 58.553 24.621 74.664 26.947l32.909 89.327c.128.347.274.686.439 1.016 2.679 5.354 10.384 14.416 22.277 14.416 7.91 0 15.896-3.976 23.738-11.817l29.044-29.044 78.118 55.143c.072.051.146.101.22.15 1.047.698 6.656 4.18 14.297 4.18 6.043 0 17.352-2.342 25.194-18.028 10.233-20.466 62.296-243.816 68.198-269.215.173-.742.26-1.502.26-2.264.001-17.547-14.118-30.281-33.571-30.281zm-52.775 292.814c-1.59 3.181-4.148 6.972-7.306 6.972-1.383 0-2.733-.58-3.271-.873l-84.713-59.797a10 10 0 00-12.838 1.099l-35 35c-5.53 5.53-8.742 5.96-9.596 5.96-1.984 0-3.676-2.288-4.252-3.166l-34.697-94.18a10.006 10.006 0 00-8.255-6.479c-14.564-1.659-55.382-8.89-69.18-22.255-5.289-5.111-5.548-8.044-5.501-8.822.057-.937.662-1.765 1.138-2.278l315.701-122.264c3.763-1.149 7.309-1.731 10.543-1.731 3.07 0 12.845.689 13.534 9.297-22.983 98.855-59.388 249.679-66.307 263.517z" data-original="#000000"/><path d="M365.016 136.824l-200 115.005a10 10 0 00-4.379 12.18l30 80a9.999 9.999 0 0018.169 1.23l34.259-63.623 133.873-128.92a10 10 0 00-11.922-15.872zM228.064 268.295a10.015 10.015 0 00-1.868 2.462l-24.563 45.616-19.289-51.437 122.141-70.234z" data-original="#000000"/></g></svg>