<svg xmlns="http://www.w3.org/2000/svg" width="35" height="35" viewBox="0 0 485 485"><path xmlns="http://www.w3.org/2000/svg" d="M144.754 275.965c12.16 16.476 26.133 31.047 44.184 41.355 20.44 11.684 42.449 15.207 65.66 14.133 10.843-.52 14.105-3.348 14.605-14.152.336-7.403 1.192-14.785 4.836-21.438 3.582-6.523 9.016-7.758 15.285-3.699 3.121 2.05 5.75 4.617 8.239 7.363 6.109 6.668 12.023 13.575 18.351 20.024 7.957 8.101 17.395 12.875 29.234 11.902l45.875.02c7.383-.5 11.223-9.551 6.985-17.817-2.985-5.77-6.903-10.902-11.043-15.883-9.375-11.261-20.422-20.859-30.867-31.046-9.414-9.192-10.012-14.528-2.45-25.133 8.278-11.586 17.153-22.711 25.493-34.235 7.78-10.765 15.765-21.515 19.84-34.39 2.609-8.219.3-11.84-8.094-13.293-1.453-.238-2.965-.238-4.438-.238l-49.918-.063c-6.148-.098-9.531 2.59-11.703 8.04-2.945 7.366-5.969 14.73-9.476 21.815-7.918 16.122-16.778 31.704-29.196 44.88-2.746 2.902-5.793 6.585-10.367 5.074-5.71-2.09-7.402-11.52-7.305-14.704l-.043-57.62c-1.109-8.215-2.945-11.9-11.12-13.497h-51.848c-6.903 0-10.387 2.692-14.09 7.008-2.11 2.512-2.77 4.121 1.613 4.957 8.594 1.629 13.473 7.203 14.746 15.824 2.051 13.793 1.91 27.641.719 41.473-.34 4.04-1.035 8.063-2.633 11.844-2.504 5.949-6.566 7.144-11.879 3.484-4.793-3.305-8.176-7.96-11.504-12.637-12.437-17.578-22.347-36.52-30.449-56.425-2.328-5.754-6.367-9.235-12.457-9.336-14.969-.239-29.953-.274-44.941.02-8.996.16-11.684 4.538-8 12.718 16.3 36.281 34.453 71.547 58.156 103.672zm0 0" fill="#fff" data-original="#000000"/><path xmlns="http://www.w3.org/2000/svg" d="M0 0v485h485V0zm455 455H30V30h425zm0 0" fill="#fff" data-original="#000000"/></svg>